# xmcd
#
# Track frame offsets:
#  150
#  24482
#  38889
#  54758
#  68920
#  81885
#  105943
#  124285
#  132935
#  151081
#  171495
#  186237
#  221745
#
# Disc length: 3361 seconds
#
# Revision: 0
# Processed by: cddbd v1.5.2PL0 Copyright (c) Steve Scherf et al.
# Submitted via: AltoMP3_Maker 3.0
#
DISCID=ae0d1f0d
DTITLE=Jvox - QED
DYEAR=1900
DGENRE=
TTITLE0=QED
TTITLE1=Sbronx
TTITLE2=Hog
TTITLE3=Sweetbaby
TTITLE4=Feynman
TTITLE5=Shadow
TTITLE6=Accidents
TTITLE7=Cold Squeeze
TTITLE8=Whodat
TTITLE9=Murder
TTITLE10=Kyotog
TTITLE11=I Wonder
TTITLE12=data track
EXTD=
EXTT0=
EXTT1=
EXTT2=
EXTT3=
EXTT4=
EXTT5=
EXTT6=
EXTT7=
EXTT8=
EXTT9=
EXTT10=
EXTT11=
EXTT12=
PLAYORDER=
